<svg data-v-b7b4c0c9="" fill="white" height="1em" viewBox="0 0 448 448.5" width="1em" xmlns="http://www.w3.org/2000/svg"><path d="M209,.5c49.67-3.92,87.5,15.08,113.5,57,16.47,33.39,17.8,67.39,4,102-24.64,47.41-63.81,68.91-117.5,64.5-54.17-10.17-86.33-42.33-96.5-96.5-4.41-49.68,14.42-87.51,56.5-113.5,12.72-6.67,26.06-11.17,40-13.5ZM223,40.5c3.06.3,5.56,1.63,7.5,4,1.11,3.59,1.61,7.25,1.5,11,18.12,5.29,25.96,17.29,23.5,36-3.19,3.5-6.69,3.84-10.5,1-2.17-5.61-4.33-11.27-6.5-17-9.67-9.33-19.33-9.33-29,0-6.61,12.48-3.78,21.98,8.5,28.5,18.14-.2,30.64,7.97,37.5,24.5,3.59,14.9-.58,27.07-12.5,36.5-3.23,2.57-6.89,4.07-11,4.5.32,4.25-.51,8.25-2.5,12-3.67,2.67-7.33,2.67-11,0-1.99-3.75-2.82-7.75-2.5-12-18.12-5.29-25.96-17.29-23.5-36,3.19-3.51,6.69-3.84,10.5-1,2.17,5.6,4.34,11.27,6.5,17,8.15,8.16,16.99,9,26.5,2.5,8-9.33,8-18.67,0-28-6.26-3.16-12.92-4.82-20-5-18.1-6.03-26.26-18.53-24.5-37.5,2.57-14.07,10.74-22.73,24.5-26-.11-3.75.39-7.41,1.5-11,1.5-1.97,3.33-3.3,5.5-4Z" style="fill-rule:evenodd;isolation:isolate;opacity:0.98;stroke-width:0px;"></path><path d="M246,239.5c2.43.02,4.76.52,7,1.5l26.5,26.5c.67,3,.67,6,0,9-9.53,9.86-19.36,19.36-29.5,28.5-9.91.37-13.07-4.13-9.5-13.5l10.5-10.5c-26.33-.33-52.67-.67-79-1-1.83-.5-3-1.67-3.5-3.5-.67-2.67-.67-5.33,0-8,.5-1.83,1.67-3,3.5-3.5,26.67-.33,53.33-.67,80-1l-11.5-11.5c-1.9-6.16-.07-10.49,5.5-13Z" style="fill-rule:evenodd;isolation:isolate;opacity:0.96;stroke-width:0px;"></path><path d="M198,303.5c9.36.52,12.53,5.19,9.5,14l-10.5,10.5c26.33.33,52.67.67,79,1,1.83.5,3,1.67,3.5,3.5.67,2.67.67,5.33,0,8-.5,1.83-1.67,3-3.5,3.5-26.67.33-53.33.67-80,1,3.83,3.83,7.67,7.67,11.5,11.5,1.81,10.53-2.36,14.36-12.5,11.5-8.83-8.83-17.67-17.67-26.5-26.5-.67-3-.67-6,0-9,9.73-9.9,19.56-19.56,29.5-29Z" style="fill-rule:evenodd;isolation:isolate;opacity:0.96;stroke-width:0px;"></path><path d="M73,208.5c34.54-2.91,56.71,12.09,66.5,45,3.4,34.57-11.43,56.73-44.5,66.5-34.59,3.37-56.76-11.47-66.5-44.5-3.19-34.59,11.64-56.92,44.5-67Z" style="fill-rule:evenodd;isolation:isolate;opacity:0.98;stroke-width:0px;"></path><path d="M45,336.5c26-.17,52,0,78,.5,24.14,5.47,38.97,20.31,44.5,44.5.67,14.33.67,28.67,0,43-3.17,12.5-11,20.33-23.5,23.5-40,.67-80,.67-120,0-12.5-3.17-20.33-11-23.5-23.5-.67-14.33-.67-28.67,0-43,5.68-24.18,20.51-39.18,44.5-45Z" style="fill-rule:evenodd;isolation:isolate;opacity:0.99;stroke-width:0px;"></path><path d="M353,208.5c34.54-2.91,56.71,12.09,66.5,45,3.4,34.57-11.43,56.73-44.5,66.5-34.59,3.37-56.76-11.47-66.5-44.5-3.19-34.59,11.64-56.92,44.5-67Z" style="fill-rule:evenodd;isolation:isolate;opacity:0.98;stroke-width:0px;"></path><path d="M325,336.5c26-.17,52,0,78,.5,24.14,5.47,38.97,20.31,44.5,44.5.67,14.33.67,28.67,0,43-3.17,12.5-11,20.33-23.5,23.5-40,.67-80,.67-120,0-12.5-3.17-20.33-11-23.5-23.5-.67-14.33-.67-28.67,0-43,5.68-24.18,20.51-39.18,44.5-45Z" style="fill-rule:evenodd;isolation:isolate;opacity:0.99;stroke-width:0px;"></path></svg>
