<svg height="1em" viewBox="150 20 500 550" width="1em" xmlns="http://www.w3.org/2000/svg" lined="false"><path d="M377.594 39.895c-22.041 2.594-44.281 9.773-60.838 19.648-15.061 8.977-35.904 27.727-46.277 41.689-15.559 20.645-22.84 47.973-23.338 86.469-.199 21.443 2.494 33.311 12.068 53.158 12.367 25.432 37.699 56.051 56.848 68.717 3.99 2.693 7.082 4.887 6.881 5.086-.199.1-3.689 1.695-7.879 3.391-8.777 3.689-22.939 11.869-30.918 17.852-3.092 2.293-5.885 4.189-6.283 4.189s-19.748-16.156-42.986-35.805c-23.238-19.748-43.285-36.402-44.582-37.102s-5.285-1.297-8.977-1.297c-5.285-.1-7.182.299-9.475 1.994-3.689 2.793-5.486 8.277-4.688 14.76.598 4.588 1.197 5.586 6.582 10.672l5.885 5.586-.1 6.881c0 3.789.199 13.164.498 20.844.998 23.537.998 35.605.199 43.684-.598 5.785-.498 10.273.697 16.955.799 5.086 1.795 12.068 2.094 15.658 1.197 12.168 2.193 10.572 3.99-6.482.598-4.887.299-6.98-1.396-11.369-1.795-4.389-2.193-7.281-2.094-15.459.1-5.586.898-13.064 1.695-16.756 1.297-5.486 1.396-7.48.498-10.672-1.596-5.086-1.496-8.178.398-14.66 1.396-4.887 1.396-5.984-.1-12.168-.898-3.689-1.496-7.979-1.297-9.375.299-2.494 2.893-.398 34.408 26.828l34.209 29.521-4.787 5.086c-6.881 7.281-16.256 19.348-20.445 26.23-5.385 8.877-15.957 32.414-19.447 43.186-1.596 5.186-3.291 12.467-3.689 16.156l-.697 6.582 4.289 3.291c4.787 3.49 37.102 19.549 51.264 25.332 18.85 7.879 42.188 15.061 59.342 18.352 19.148 3.59 33.012 4.488 69.814 4.488 32.215-.1 36.602-.299 48.371-2.293 43.285-7.58 93.252-26.43 125.564-47.572 13.863-9.076 17.553-12.168 19.148-15.957 1.197-2.893 1.098-3.99-1.496-11.469-3.889-11.369-8.477-22.639-12.168-30.119-6.582-13.064-27.926-40.891-39.693-51.762-14.561-13.564-35.506-26.529-59.143-36.701l-7.58-3.291 8.777-5.686c15.857-10.473 33.811-28.324 47.074-46.875 9.873-13.863 17.951-34.01 21.145-52.76 4.289-25.432-.299-62.035-10.871-85.373-10.273-22.84-28.424-44.682-47.473-57.248-14.76-9.773-38.896-18.65-60.938-22.539-10.572-1.895-31.914-2.594-42.088-1.496zm109.107 104.32c4.09 6.482 5.984 16.355 6.881 34.807.998 21.244.1 33.611-2.793 39.195-2.992 5.885-9.475 12.766-15.758 16.855l-5.186 3.291-80.586-.697-80.586-.598-5.984-2.693c-9.674-4.389-16.256-12.766-19.947-25.332-1.496-4.986-1.695-9.076-1.297-26.43.398-18.152.697-21.244 2.693-26.131 2.395-6.184 7.281-13.664 9.574-14.561.799-.299 21.443 5.785 45.777 13.564 29.721 9.375 45.877 14.063 48.869 14.063 3.092 0 17.254-4.289 46.975-14.461 23.438-7.879 42.885-14.561 43.186-14.961.299-.299 1.596-.498 2.893-.498 1.695 0 3.092 1.297 5.285 4.588z" fill="white"></path><path d="M337.6 170.744c-8.377 8.477-8.178 22.24.498 30.119 3.49 3.092 4.688 3.59 8.977 3.59s5.486-.498 8.977-3.59c8.678-7.879 8.877-21.643.498-30.119-3.889-3.889-4.588-4.189-9.475-4.189s-5.586.299-9.475 4.189zm83.178-1.895c-7.779 5.086-10.672 18.949-5.785 27.826 8.977 16.057 28.822 8.777 28.822-10.473 0-15.061-12.467-24.436-23.039-17.354z" fill="white" opacity="0.4"></path></svg>
