<svg viewBox="0 0 512 512" xmlns="http://www.w3.org/2000/svg" style="opacity:0.8"><path d="M500.3 443.7l-119.7-119.7c-15.03 22.3-34.26 41.54-56.57 56.57l119.7 119.7c15.62 15.62 40.95 15.62 56.57 0C515.9 484.7 515.9 459.3 500.3 443.7z" fill="currentColor"></path><path d="M207.1 0C93.12 0-.0002 93.13-.0002 208S93.12 416 207.1 416s208-93.13 208-208S322.9 0 207.1 0zM207.1 336c-70.58 0-128-57.42-128-128c0-70.58 57.42-128 128-128s128 57.42 128 128C335.1 278.6 278.6 336 207.1 336z" fill="currentColor" opacity="1"></path></svg>
