<svg fill="none" height="1em" viewBox="0 0 200 200" width="1em" xmlns="http://www.w3.org/2000/svg" class="parent-advisor" title="Para maiores de 18 anos"><circle cx="100" cy="100" fill="#5bdd65" r="100"></circle><circle cx="99.9231" cy="99.9231" fill="black" r="76.9231"></circle><path d="M45 91.304V76.2294C53.0312 74.8205 58.788 70.3122 62.2706 62.7044H72.7182V136.951H58.6459V84.4007C55.803 87.3123 51.2544 89.6134 45 91.304Z" fill="white"></path><path d="M82.9527 97.0803C78.9726 93.4173 76.9826 88.2985 76.9826 81.7239C76.9826 76.5581 78.5462 72.0028 81.6733 68.058C84.8716 64.0193 89.7756 62 96.3853 62C102.711 62 107.508 63.9724 110.777 67.9172C114.118 71.768 115.788 76.3702 115.788 81.7239C115.788 88.2985 113.798 93.4173 109.818 97.0803C115.575 101.213 118.453 107.365 118.453 115.536C118.453 122.205 116.428 127.793 112.377 132.301C108.325 136.716 102.995 138.923 96.3853 138.923C89.7045 138.923 84.3386 136.669 80.2874 132.161C76.3074 127.652 74.3174 122.111 74.3174 115.536C74.3174 111.122 75.1702 107.365 76.876 104.265C78.5817 101.072 80.6073 98.677 82.9527 97.0803ZM96.3853 91.5858C98.02 91.5858 99.477 90.9753 100.756 89.7543C102.036 88.4394 102.675 86.5139 102.675 83.978C102.675 81.3482 102.036 79.3758 100.756 78.0609C99.477 76.7459 98.02 76.0885 96.3853 76.0885C94.7507 76.0885 93.2581 76.7459 91.9078 78.0609C90.6285 79.3758 89.9888 81.3482 89.9888 83.978C89.9888 86.42 90.6285 88.2985 91.9078 89.6134C93.2581 90.9283 94.7507 91.5858 96.3853 91.5858ZM96.3853 124.271C98.8018 124.271 100.721 123.379 102.142 121.594C103.635 119.81 104.381 117.509 104.381 114.691C104.381 111.685 103.599 109.243 102.036 107.365C100.543 105.393 98.6596 104.406 96.3853 104.406C94.0399 104.406 92.121 105.393 90.6285 107.365C89.1359 109.243 88.3897 111.685 88.3897 114.691C88.3897 117.603 89.1004 119.951 90.5219 121.735C92.0144 123.426 93.9689 124.271 96.3853 124.271Z" fill="white"></path><path d="M143.66 85.0769V84.0769H142.66H138.264H137.264V85.0769V97.3553H125.077H124.077V98.3553V102.659V103.659H125.077H137.264V115.846V116.846H138.264H142.66H143.66V115.846V103.659H155.846H156.846V102.659V98.3553V97.3553H155.846H143.66V85.0769Z" fill="white" stroke="white" stroke-width="2"></path></svg>
