<svg fill="none" height="98" viewBox="0 0 280 98" width="280" xmlns="http://www.w3.org/2000/svg" class="secure-site" title="Site seguro"><path clip-rule="evenodd" d="M35.5 0C19.208 0 6 13.2076 6 29.5V64H65V29.5C65 13.2076 51.792 0 35.5 0ZM35.5 9C24.7305 9 16 17.7305 16 28.5V52H55V28.5C55 17.7305 46.2695 9 35.5 9Z" fill="#D9D9D9" fill-rule="evenodd"></path><path d="M0 42C0 40.3431 1.34315 39 3 39H67C68.6569 39 70 40.3431 70 42V63C70 82.33 54.33 98 35 98V98C15.67 98 0 82.33 0 63V42Z" fill="url(#paint0_linear_336_31)"></path><path d="M29.4956 76.8457L17.5388 64.9113C16.8204 64.1943 16.8204 63.0318 17.5388 62.3147L20.1402 59.7181C20.8585 59.001 22.0233 59.001 22.7416 59.7181L30.7963 67.7576L48.0485 50.5377C48.7668 49.8208 49.9316 49.8208 50.65 50.5377L53.2514 53.1343C53.9697 53.8513 53.9697 55.0139 53.2514 55.731L32.097 76.8458C31.3786 77.5628 30.2139 77.5628 29.4956 76.8457Z" fill="white"></path><path d="M93.3617 53.8942C90.8343 53.8942 88.3829 53.5592 86.0077 52.8893C83.663 52.1889 81.775 51.2906 80.3438 50.1943L82.856 44.6217C84.2263 45.6266 85.8555 46.4336 87.7434 47.0426C89.6314 47.6517 91.5194 47.9562 93.4074 47.9562C95.5085 47.9562 97.0616 47.6517 98.0665 47.0426C99.0714 46.4031 99.5738 45.5657 99.5738 44.5304C99.5738 43.7691 99.2693 43.1448 98.6603 42.6576C98.0817 42.1399 97.3204 41.7289 96.3764 41.4243C95.4629 41.1198 94.2144 40.7849 92.6309 40.4194C90.1948 39.8409 88.2002 39.2623 86.6472 38.6837C85.0942 38.1051 83.7543 37.1764 82.6276 35.8974C81.5314 34.6185 80.9832 32.9132 80.9832 30.7816C80.9832 28.924 81.4857 27.2492 82.4906 25.7571C83.4955 24.2345 85.0028 23.0317 87.0126 22.1486C89.0528 21.2655 91.5346 20.824 94.458 20.824C96.4982 20.824 98.4928 21.0676 100.442 21.5548C102.391 22.042 104.096 22.7424 105.558 23.656L103.274 29.2742C100.32 27.5994 97.3661 26.762 94.4123 26.762C92.3416 26.762 90.8038 27.097 89.7989 27.7669C88.8245 28.4368 88.3372 29.3199 88.3372 30.4162C88.3372 31.5124 88.9006 32.3346 90.0273 32.8827C91.1844 33.4004 92.9354 33.9181 95.2802 34.4357C97.7163 35.0143 99.7108 35.5929 101.264 36.1715C102.817 36.7501 104.142 37.6636 105.238 38.9121C106.364 40.1606 106.928 41.8507 106.928 43.9823C106.928 45.8093 106.41 47.4842 105.375 49.0067C104.37 50.4989 102.847 51.6865 100.807 52.5696C98.7668 53.4526 96.2851 53.8942 93.3617 53.8942Z" fill="white"></path><path d="M136.741 47.408V53.3461H111.984V21.3721H136.147V27.3101H119.338V34.253H134.183V40.0084H119.338V47.408H136.741Z" fill="white"></path><path d="M164.145 36.8566H170.905V49.8289C169.169 51.1383 167.159 52.1432 164.876 52.8436C162.592 53.544 160.293 53.8942 157.978 53.8942C154.659 53.8942 151.675 53.1938 149.026 51.793C146.376 50.3618 144.29 48.3977 142.768 45.9007C141.276 43.3732 140.53 40.526 140.53 37.3591C140.53 34.1921 141.276 31.3602 142.768 28.8631C144.29 26.3357 146.392 24.3716 149.071 22.9708C151.751 21.5396 154.766 20.824 158.115 20.824C160.917 20.824 163.46 21.296 165.743 22.24C168.027 23.184 169.946 24.5543 171.499 26.3509L166.748 30.7359C164.465 28.3302 161.709 27.1274 158.481 27.1274C156.441 27.1274 154.629 27.5537 153.045 28.4064C151.462 29.259 150.229 30.4618 149.345 32.0149C148.462 33.5679 148.021 35.3493 148.021 37.3591C148.021 39.3384 148.462 41.1046 149.345 42.6576C150.229 44.2106 151.447 45.4287 153 46.3118C154.583 47.1644 156.38 47.5908 158.389 47.5908C160.521 47.5908 162.44 47.134 164.145 46.2204V36.8566Z" fill="white"></path><path d="M191.984 53.8942C187.417 53.8942 183.854 52.6305 181.296 50.103C178.768 47.5755 177.505 43.967 177.505 39.2775V21.3721H184.904V39.0035C184.904 44.7283 187.28 47.5908 192.03 47.5908C194.344 47.5908 196.11 46.9056 197.328 45.5353C198.547 44.1345 199.156 41.9572 199.156 39.0035V21.3721H206.464V39.2775C206.464 43.967 205.185 47.5755 202.627 50.103C200.1 52.6305 196.552 53.8942 191.984 53.8942Z" fill="white"></path><path d="M234.148 53.3461L227.982 44.439H227.616H221.176V53.3461H213.776V21.3721H227.616C230.448 21.3721 232.9 21.8441 234.97 22.7881C237.071 23.7321 238.685 25.0719 239.812 26.8077C240.939 28.5434 241.502 30.5989 241.502 32.9741C241.502 35.3493 240.924 37.4048 239.766 39.1405C238.64 40.8458 237.026 42.1552 234.925 43.0687L242.096 53.3461H234.148ZM234.011 32.9741C234.011 31.1774 233.433 29.8071 232.275 28.8631C231.118 27.8887 229.428 27.4015 227.205 27.4015H221.176V38.5467H227.205C229.428 38.5467 231.118 38.0595 232.275 37.085C233.433 36.1106 234.011 34.7403 234.011 32.9741Z" fill="white"></path><path d="M262.849 53.8942C259.53 53.8942 256.531 53.1786 253.851 51.7474C251.202 50.3162 249.116 48.352 247.593 45.855C246.101 43.3276 245.355 40.4956 245.355 37.3591C245.355 34.2226 246.101 31.4058 247.593 28.9088C249.116 26.3814 251.202 24.402 253.851 22.9708C256.531 21.5396 259.53 20.824 262.849 20.824C266.169 20.824 269.153 21.5396 271.802 22.9708C274.451 24.402 276.537 26.3814 278.06 28.9088C279.582 31.4058 280.344 34.2226 280.344 37.3591C280.344 40.4956 279.582 43.3276 278.06 45.855C276.537 48.352 274.451 50.3162 271.802 51.7474C269.153 53.1786 266.169 53.8942 262.849 53.8942ZM262.849 47.5908C264.737 47.5908 266.443 47.1644 267.965 46.3118C269.488 45.4287 270.675 44.2106 271.528 42.6576C272.411 41.1046 272.853 39.3384 272.853 37.3591C272.853 35.3797 272.411 33.6136 271.528 32.0605C270.675 30.5075 269.488 29.3047 267.965 28.452C266.443 27.569 264.737 27.1274 262.849 27.1274C260.961 27.1274 259.256 27.569 257.734 28.452C256.211 29.3047 255.008 30.5075 254.125 32.0605C253.272 33.6136 252.846 35.3797 252.846 37.3591C252.846 39.3384 253.272 41.1046 254.125 42.6576C255.008 44.2106 256.211 45.4287 257.734 46.3118C259.256 47.1644 260.961 47.5908 262.849 47.5908Z" fill="white"></path><rect fill="#78BF01" height="28" rx="3" width="200" x="80" y="62"></rect><path d="M98.7396 81.3301C97.4711 81.3301 96.3212 81.0743 95.2898 80.5628C94.2703 80.0401 93.4641 79.3228 92.8714 78.4109C92.2905 77.4879 92 76.4481 92 75.2915C92 74.1349 92.2905 73.1007 92.8714 72.1888C93.4641 71.2657 94.2703 70.5484 95.2898 70.0369C96.3212 69.5142 97.4771 69.2529 98.7574 69.2529C99.8363 69.2529 100.808 69.4308 101.674 69.7867C102.551 70.1425 103.286 70.6541 103.879 71.3213L102.029 72.9227C101.188 72.0108 100.144 71.5549 98.8997 71.5549C98.1291 71.5549 97.4415 71.7161 96.8369 72.0386C96.2323 72.35 95.7581 72.7893 95.4143 73.3565C95.0823 73.9236 94.9164 74.5686 94.9164 75.2915C94.9164 76.0143 95.0823 76.6593 95.4143 77.2265C95.7581 77.7937 96.2323 78.2385 96.8369 78.561C97.4415 78.8724 98.1291 79.0281 98.8997 79.0281C100.144 79.0281 101.188 78.5666 102.029 77.6435L103.879 79.245C103.286 79.9233 102.551 80.4404 101.674 80.7963C100.797 81.1522 99.8185 81.3301 98.7396 81.3301Z" fill="white"></path><path d="M115.462 78.9614V81.1299H105.824V69.453H115.231V71.6216H108.687V74.1572H114.467V76.259H108.687V78.9614H115.462Z" fill="white"></path><path d="M125.686 81.1299L123.285 77.8771H123.143H120.635V81.1299H117.755V69.453H123.143C124.245 69.453 125.2 69.6254 126.006 69.9701C126.824 70.3149 127.452 70.8042 127.891 71.4381C128.329 72.072 128.549 72.8227 128.549 73.6901C128.549 74.5575 128.324 75.3082 127.873 75.9421C127.434 76.5648 126.806 77.043 125.988 77.3766L128.78 81.1299H125.686ZM125.632 73.6901C125.632 73.0339 125.407 72.5335 124.957 72.1888C124.506 71.8329 123.848 71.655 122.983 71.655H120.635V75.7252H122.983C123.848 75.7252 124.506 75.5473 124.957 75.1914C125.407 74.8355 125.632 74.3351 125.632 73.6901Z" fill="white"></path><path d="M133.236 71.655H129.253V69.453H140.1V71.655H136.117V81.1299H133.236V71.655Z" fill="white"></path><path d="M141.65 69.453H144.531V81.1299H141.65V69.453Z" fill="white"></path><path d="M150.366 71.6216V74.7076H156.128V76.8762H150.366V81.1299H147.485V69.453H156.892V71.6216H150.366Z" fill="white"></path><path d="M158.842 69.453H161.723V81.1299H158.842V69.453Z" fill="white"></path><path d="M170.635 81.3301C169.366 81.3301 168.216 81.0743 167.185 80.5628C166.165 80.0401 165.359 79.3228 164.766 78.4109C164.185 77.4879 163.895 76.4481 163.895 75.2915C163.895 74.1349 164.185 73.1007 164.766 72.1888C165.359 71.2657 166.165 70.5484 167.185 70.0369C168.216 69.5142 169.372 69.2529 170.652 69.2529C171.731 69.2529 172.703 69.4308 173.569 69.7867C174.446 70.1425 175.181 70.6541 175.774 71.3213L173.924 72.9227C173.083 72.0108 172.039 71.5549 170.795 71.5549C170.024 71.5549 169.336 71.7161 168.732 72.0386C168.127 72.35 167.653 72.7893 167.309 73.3565C166.977 73.9236 166.811 74.5686 166.811 75.2915C166.811 76.0143 166.977 76.6593 167.309 77.2265C167.653 77.7937 168.127 78.2385 168.732 78.561C169.336 78.8724 170.024 79.0281 170.795 79.0281C172.039 79.0281 173.083 78.5666 173.924 77.6435L175.774 79.245C175.181 79.9233 174.446 80.4404 173.569 80.7963C172.691 81.1522 171.713 81.3301 170.635 81.3301Z" fill="white"></path><path d="M185.674 78.6277H179.895L178.792 81.1299H175.84L181.388 69.453H184.234L189.8 81.1299H186.776L185.674 78.6277ZM184.767 76.5759L182.793 72.1054L180.819 76.5759H184.767Z" fill="white"></path><path d="M196.875 81.3301C195.606 81.3301 194.456 81.0743 193.425 80.5628C192.405 80.0401 191.599 79.3228 191.006 78.4109C190.425 77.4879 190.135 76.4481 190.135 75.2915C190.135 74.1349 190.425 73.1007 191.006 72.1888C191.599 71.2657 192.405 70.5484 193.425 70.0369C194.456 69.5142 195.612 69.2529 196.892 69.2529C197.971 69.2529 198.943 69.4308 199.809 69.7867C200.686 70.1425 201.421 70.6541 202.014 71.3213L200.164 72.9227C199.323 72.0108 198.279 71.5549 197.035 71.5549C196.264 71.5549 195.576 71.7161 194.972 72.0386C194.367 72.35 193.893 72.7893 193.549 73.3565C193.217 73.9236 193.051 74.5686 193.051 75.2915C193.051 76.0143 193.217 76.6593 193.549 77.2265C193.893 77.7937 194.367 78.2385 194.972 78.561C195.576 78.8724 196.264 79.0281 197.035 79.0281C198.279 79.0281 199.323 78.5666 200.164 77.6435L202.014 79.245C201.421 79.9233 200.686 80.4404 199.809 80.7963C198.931 81.1522 197.953 81.3301 196.875 81.3301ZM195.914 85C195.606 85 195.304 84.9666 195.007 84.8999C194.711 84.8443 194.462 84.7609 194.26 84.6497L194.687 83.532C195.067 83.6989 195.452 83.7823 195.843 83.7823C196.46 83.7823 196.768 83.6043 196.768 83.2485C196.768 82.926 196.477 82.7647 195.897 82.7647H195.292L195.754 80.9965H197.23L196.981 81.964C197.503 82.0196 197.888 82.1697 198.137 82.4144C198.398 82.6702 198.528 82.9816 198.528 83.3486C198.528 83.8601 198.291 84.2605 197.817 84.5496C197.343 84.8499 196.709 85 195.914 85Z" fill="white"></path><path d="M211.914 78.6277H206.134L205.032 81.1299H202.08L207.628 69.453H210.473L216.039 81.1299H213.016L211.914 78.6277ZM211.007 76.5759L209.033 72.1054L207.059 76.5759H211.007ZM210.385 68.5522C210.064 68.5522 209.78 68.4966 209.531 68.3854C209.294 68.2631 209.027 68.1018 208.731 67.9017C208.541 67.7682 208.381 67.6681 208.251 67.6014C208.132 67.5347 208.014 67.5013 207.895 67.5013C207.646 67.5013 207.444 67.5847 207.29 67.7515C207.136 67.9072 207.053 68.1352 207.041 68.4355H205.637C205.66 67.6904 205.856 67.101 206.223 66.6673C206.603 66.2224 207.101 66 207.717 66C208.025 66 208.298 66.0612 208.535 66.1835C208.784 66.2947 209.063 66.456 209.371 66.6673C209.561 66.8007 209.715 66.9008 209.833 66.9675C209.964 67.0342 210.088 67.0676 210.207 67.0676C210.444 67.0676 210.639 66.9898 210.794 66.8341C210.96 66.6673 211.048 66.4448 211.06 66.1668H212.465C212.441 66.8897 212.24 67.468 211.861 67.9017C211.493 68.3354 211.001 68.5522 210.385 68.5522Z" fill="white"></path><path d="M223.186 81.3301C221.893 81.3301 220.726 81.0688 219.682 80.5461C218.651 80.0234 217.839 79.3061 217.246 78.3942C216.665 77.4712 216.375 76.4369 216.375 75.2915C216.375 74.146 216.665 73.1174 217.246 72.2054C217.839 71.2824 218.651 70.5596 219.682 70.0369C220.726 69.5142 221.893 69.2529 223.186 69.2529C224.478 69.2529 225.64 69.5142 226.671 70.0369C227.702 70.5596 228.514 71.2824 229.107 72.2054C229.7 73.1174 229.996 74.146 229.996 75.2915C229.996 76.4369 229.7 77.4712 229.107 78.3942C228.514 79.3061 227.702 80.0234 226.671 80.5461C225.64 81.0688 224.478 81.3301 223.186 81.3301ZM223.186 79.0281C223.921 79.0281 224.585 78.8724 225.177 78.561C225.77 78.2385 226.232 77.7937 226.564 77.2265C226.908 76.6593 227.08 76.0143 227.08 75.2915C227.08 74.5686 226.908 73.9236 226.564 73.3565C226.232 72.7893 225.77 72.35 225.177 72.0386C224.585 71.7161 223.921 71.5549 223.186 71.5549C222.451 71.5549 221.787 71.7161 221.194 72.0386C220.601 72.35 220.133 72.7893 219.789 73.3565C219.457 73.9236 219.291 74.5686 219.291 75.2915C219.291 76.0143 219.457 76.6593 219.789 77.2265C220.133 77.7937 220.601 78.2385 221.194 78.561C221.787 78.8724 222.451 79.0281 223.186 79.0281Z" fill="white"></path><path d="M241.288 81.3301C240.304 81.3301 239.349 81.2078 238.425 80.9631C237.512 80.7073 236.777 80.3793 236.219 79.9789L237.198 77.9438C237.731 78.3108 238.365 78.6055 239.1 78.8279C239.835 79.0503 240.57 79.1615 241.305 79.1615C242.123 79.1615 242.728 79.0503 243.119 78.8279C243.51 78.5944 243.706 78.2886 243.706 77.9104C243.706 77.6324 243.587 77.4044 243.35 77.2265C243.125 77.0375 242.829 76.8873 242.461 76.7761C242.106 76.6649 241.62 76.5426 241.003 76.4091C240.055 76.1978 239.278 75.9865 238.674 75.7752C238.069 75.5639 237.547 75.2248 237.109 74.7577C236.682 74.2906 236.468 73.6678 236.468 72.8894C236.468 72.211 236.664 71.5994 237.055 71.0544C237.447 70.4984 238.033 70.0591 238.816 69.7366C239.61 69.4141 240.576 69.2529 241.714 69.2529C242.509 69.2529 243.285 69.3418 244.044 69.5198C244.803 69.6977 245.467 69.9535 246.036 70.2871L245.146 72.3389C243.996 71.7272 242.847 71.4214 241.697 71.4214C240.89 71.4214 240.292 71.5438 239.901 71.7884C239.521 72.0331 239.331 72.3556 239.331 72.7559C239.331 73.1563 239.551 73.4565 239.989 73.6567C240.44 73.8458 241.122 74.0348 242.034 74.2239C242.983 74.4352 243.759 74.6465 244.364 74.8578C244.969 75.0691 245.484 75.4027 245.911 75.8586C246.35 76.3146 246.569 76.9318 246.569 77.7103C246.569 78.3775 246.368 78.9892 245.964 79.5452C245.573 80.0901 244.98 80.5239 244.186 80.8464C243.392 81.1689 242.426 81.3301 241.288 81.3301Z" fill="white"></path><path d="M252.628 81.3301C251.644 81.3301 250.689 81.2078 249.765 80.9631C248.852 80.7073 248.117 80.3793 247.559 79.9789L248.538 77.9438C249.071 78.3108 249.705 78.6055 250.44 78.8279C251.175 79.0503 251.91 79.1615 252.645 79.1615C253.463 79.1615 254.068 79.0503 254.459 78.8279C254.85 78.5944 255.046 78.2886 255.046 77.9104C255.046 77.6324 254.927 77.4044 254.69 77.2265C254.465 77.0375 254.169 76.8873 253.801 76.7761C253.446 76.6649 252.959 76.5426 252.343 76.4091C251.395 76.1978 250.618 75.9865 250.013 75.7752C249.409 75.5639 248.887 75.2248 248.449 74.7577C248.022 74.2906 247.808 73.6678 247.808 72.8894C247.808 72.211 248.004 71.5994 248.395 71.0544C248.786 70.4984 249.373 70.0591 250.156 69.7366C250.95 69.4141 251.916 69.2529 253.054 69.2529C253.849 69.2529 254.625 69.3418 255.384 69.5198C256.143 69.6977 256.806 69.9535 257.376 70.2871L256.486 72.3389C255.336 71.7272 254.186 71.4214 253.037 71.4214C252.23 71.4214 251.632 71.5438 251.24 71.7884C250.861 72.0331 250.671 72.3556 250.671 72.7559C250.671 73.1563 250.891 73.4565 251.329 73.6567C251.78 73.8458 252.462 74.0348 253.374 74.2239C254.323 74.4352 255.099 74.6465 255.704 74.8578C256.309 75.0691 256.824 75.4027 257.251 75.8586C257.69 76.3146 257.909 76.9318 257.909 77.7103C257.909 78.3775 257.707 78.9892 257.304 79.5452C256.913 80.0901 256.32 80.5239 255.526 80.8464C254.732 81.1689 253.766 81.3301 252.628 81.3301Z" fill="white"></path><path d="M259.877 69.453H262.758V78.928H269V81.1299H259.877V69.453Z" fill="white"></path><defs><linearGradient id="paint0_linear_336_31" gradientUnits="userSpaceOnUse" x1="1.95671e-07" x2="70" y1="64" y2="64"><stop offset="0.4999" stop-color="#78BF01"></stop><stop offset="0.5" stop-color="#6EB600"></stop><stop offset="0.5001" stop-color="#78BF01"></stop><stop offset="0.5002" stop-color="#68B100"></stop></linearGradient></defs></svg>
